# xmcd
#
# Track frame offsets:
#	150
#	39088
#	90640
#	121971
#	156862
#	177933
#	206180
#	245075
#	274537
#	301072
#	334207
#
# Disc length: 4729 seconds
#
# Revision: 1
# Processed by: cddbd v1.5.2PL0 Copyright (c) Steve Scherf et al.
# Submitted via: audiograbber 1.83.01
#
DISCID=9112770b
DTITLE=Grateful Dead - 82-08-03M Starlight Theatre, Kansas City MO
DYEAR=1900
DGENRE=
TTITLE0=Mississippi Half-Step
TTITLE1=Franklin's Tower
TTITLE2=Minglewood Blues
TTITLE3=Peggy-O
TTITLE4=El Paso
TTITLE5=Cumberland Blues
TTITLE6=Althea
TTITLE7=Cassidy
TTITLE8=Big Railroad Blues
TTITLE9=Men Smart, Women Smarter
TTITLE10=Might As Well
EXTD=
EXTT0=
EXTT1=
EXTT2=
EXTT3=
EXTT4=
EXTT5=
EXTT6=
EXTT7=
EXTT8=
EXTT9=
EXTT10=
PLAYORDER=
